# File created by Blade
# Date/Time:  Tue Jan 27 20:12:02 2015
# Frame Rate: 120.000 fps
#------------------------------------------------------
:FULLY-SPECIFIED
:DEGREES
2466
root 8.492486 32.474546 -3.374683 -0.969766 -18.124957 -6.571614
Spine 4.683679 19.195684 2.529271
Head 15.640021 -10.387245 3.087760
LeftShoulder -17.084651 2.282896 28.942084
LeftArm -21.900195 -39.531698 -64.537063
LeftForeArm -5.876488 -0.000000 97.273538
LeftHand 16.738009 -0.000000 5.811114
LeftHandThumb1 -26.253704 0.000000 33.147579
RightShoulder -18.636301 -22.196622 -21.525238
RightArm 10.518193 -39.349683 88.742368
RightForeArm -24.560663 0.000000 102.236139
RightHand 18.799304 -0.000000 1.313391
RightHandThumb1 -24.326973 -0.000000 -32.862282
LeftUpLeg 10.198037 10.264956 -2.716524
LeftLeg -4.014589 -0.000000 0.000000
LeftFoot -19.396066 22.048220 -17.010395
LeftToeBase 21.954529 -0.000000 -0.000000
RightUpLeg 8.079409 -63.038639 -36.424396
RightLeg 80.401674 -0.000000 -0.000000
RightFoot 13.684413 -30.492735 15.989532
RightToeBase 16.841280 -0.000000 -0.000000
2467
root 8.490810 32.471501 -3.368872 -0.975486 -18.124086 -6.527599
Spine 4.698470 19.223813 2.488505
Head 15.660140 -10.360593 3.096959
LeftShoulder -17.104011 2.287667 28.938325
LeftArm -21.860671 -39.525152 -64.529828
LeftForeArm -5.857138 -0.000000 97.243586
LeftHand 16.709920 -0.000000 5.835751
LeftHandThumb1 -26.253704 0.000000 33.147579
RightShoulder -18.653951 -22.177642 -21.531356
RightArm 10.480070 -39.352483 88.749610
RightForeArm -24.555086 -0.000000 102.267414
RightHand 18.776441 -0.000000 1.314527
RightHandThumb1 -24.326973 -0.000000 -32.862282
LeftUpLeg 10.196556 10.283591 -2.756275
LeftLeg -4.004365 -0.000000 0.000000
LeftFoot -19.400826 22.031904 -17.007606
LeftToeBase 21.970882 -0.000000 -0.000000
RightUpLeg 8.087612 -62.988939 -36.319821
RightLeg 80.502224 -0.000000 -0.000000
RightFoot 13.784111 -30.421511 16.040125
RightToeBase 16.781355 -0.000000 -0.000000
2468
root 8.490388 32.468261 -3.366525 -0.982315 -18.101558 -6.493255
Spine 4.723240 19.200735 2.472616
Head 15.701401 -10.298391 3.076436
LeftShoulder -17.096062 2.283208 28.920645
LeftArm -21.899461 -39.552298 -64.456787
LeftForeArm -5.917180 -0.000000 97.209807
LeftHand 16.761236 -0.000000 5.787587
LeftHandThumb1 -26.253704 0.000000 33.147579
RightShoulder -18.617789 -22.191338 -21.556588
RightArm 10.493131 -39.322408 88.744899
RightForeArm -24.615616 0.000000 102.290601
RightHand 18.770326 -0.000000 1.307548
RightHandThumb1 -24.326973 -0.000000 -32.862282
LeftUpLeg 10.182982 10.236310 -2.797532
LeftLeg -3.974141 -0.000000 0.000000
LeftFoot -19.366193 22.055557 -16.909119
LeftToeBase 21.811715 -0.000000 -0.000000
RightUpLeg 8.115733 -62.970034 -36.241760
RightLeg 80.599643 -0.000000 -0.000000
RightFoot 13.960454 -30.361421 16.043900
RightToeBase 16.885806 -0.000000 -0.000000
2469
root 8.490520 32.464755 -3.362406 -0.985335 -18.103226 -6.455367
Spine 4.731622 19.196244 2.452199
Head 15.758524 -10.243593 3.045833
LeftShoulder -17.122068 2.276516 28.903037
LeftArm -21.896273 -39.540096 -64.407263
LeftForeArm -5.925333 0.000000 97.171782
LeftHand 16.726137 -0.000000 5.796007
LeftHandThumb1 -26.253704 0.000000 33.147579
RightShoulder -18.583788 -22.175346 -21.589940
RightArm 10.465630 -39.301877 88.765973
RightForeArm -24.643537 0.000000 102.306523
RightHand 18.771576 -0.000000 1.280546
RightHandThumb1 -24.326973 -0.000000 -32.862282
LeftUpLeg 10.181579 10.190249 -2.843966
LeftLeg -3.975825 -0.000000 0.000000
LeftFoot -19.371767 22.114897 -16.891636
LeftToeBase 21.770326 -0.000000 -0.000000
RightUpLeg 8.119818 -62.921467 -36.151425
RightLeg 80.703171 -0.000000 -0.000000
RightFoot 14.055155 -30.233311 16.159602
RightToeBase 17.062089 -0.000000 -0.000000
2470
root 8.489004 32.461494 -3.354301 -0.983513 -18.113110 -6.421154
Spine 4.706727 19.200274 2.420563
Head 15.855681 -10.226012 3.028185
LeftShoulder -17.101518 2.333771 28.888488
LeftArm -21.894982 -39.554962 -64.354914
LeftForeArm -5.949985 0.000000 97.131316
LeftHand 16.717948 -0.000000 5.817274
LeftHandThumb1 -26.253704 0.000000 33.147579
RightShoulder -18.552865 -22.165345 -21.614512
RightArm 10.441395 -39.296478 88.776099
RightForeArm -24.626938 0.000000 102.312962
RightHand 18.724221 -0.000000 1.268656
RightHandThumb1 -24.326973 -0.000000 -32.862282
LeftUpLeg 10.195543 10.157507 -2.881565
LeftLeg -4.006407 -0.000000 0.000000
LeftFoot -19.435204 22.166762 -16.984159
LeftToeBase 21.959913 -0.000000 -0.000000
RightUpLeg 8.173883 -62.913651 -36.127545
RightLeg 80.790222 -0.000000 -0.000000
RightFoot 14.210405 -30.180997 16.082592
RightToeBase 17.019495 -0.000000 -0.000000
